# xmcd
#
# Track frame offsets:
#	150
#	16923
#	35303
#	50431
#	69896
#	95880
#	115330
#	129765
#	148813
#	163686
#	183505
#	200235
#	215702
#	229214
#	241371
#	256256
#	272396
#
# Disc length: 3857 seconds
#
# Revision: 1
# Processed by: cddbd v1.5.2PL0 Copyright (c) Steve Scherf et al.
# Submitted via: audiograbber 1.81.03
#
DISCID=f70f0f11
DTITLE=The Songs Of Ian Tamblyn - Coastline Of Our Dreams
DYEAR=2005
DGENRE=Blues
TTITLE0=Hart Rouge - Bay Of Sails
TTITLE1=Rodney`Brown - Black Spruce
TTITLE2=Lynn`Miles - One Horse Town
TTITLE3=Aengus`Finnan - Ballad Of Mark Jarareuse
TTITLE4=Sugar Sticks - Boys On An Island
TTITLE5=Gwen`Swick - Days Of Sun And Wind
TTITLE6=Betty And The Bobs - Take Me Home
TTITLE7=Susan`Crowe - The`Angel's Share
TTITLE8=Valdy - Long Lost French Cafe
TTITLE9=Brent`Titcomb - Dangerous Doorway
TTITLE10=Fred`Guignion - Chasing The Sun
TTITLE11=Fig For A Kiss - Heart Of The Run
TTITLE12=Sneezy Waters - Moose Tracks
TTITLE13=Ken`Hamm - Guitar Trcuk Driving Man
TTITLE14=Rita`Chiarelli - Hollywood Parade
TTITLE15=Ken`Whiteley - 25th Hour Of The Day
TTITLE16=Georgette`Fry - Boxes
EXTD=
EXTT0=
EXTT1=
EXTT2=
EXTT3=
EXTT4=
EXTT5=
EXTT6=
EXTT7=
EXTT8=
EXTT9=
EXTT10=
EXTT11=
EXTT12=
EXTT13=
EXTT14=
EXTT15=
EXTT16=
PLAYORDER=
